<svg width="188" height="50" viewBox="0 0 188 50" fill="none" xmlns="http://www.w3.org/2000/svg">
<path d="M33.5885 9L42.5885 24.5885L33.5885 40.1769L15.5885 40.1769L6.58846 24.5885L15.5885 9L33.5885 9Z" fill="white"/>
<path d="M17 24.75C17 20.4698 20.4698 17 24.75 17C29.0302 17 32.5 20.4698 32.5 24.75C32.5 29.0302 29.0302 32.5 24.75 32.5C20.4698 32.5 17 29.0302 17 24.75Z" fill="#013FFF"/>
<path d="M60.34 23.96V26.7H56.62V38H53.2V26.7H49.48V23.96H60.34ZM65.4764 28.7C65.8764 28.0867 66.3764 27.6067 66.9764 27.26C67.5764 26.9 68.2431 26.72 68.9764 26.72V30.34H68.0364C67.1831 30.34 66.5431 30.5267 66.1164 30.9C65.6897 31.26 65.4764 31.9 65.4764 32.82V38H62.0564V26.84H65.4764V28.7ZM69.9311 32.4C69.9311 31.2533 70.1444 30.2467 70.5711 29.38C71.0111 28.5133 71.6044 27.8467 72.3511 27.38C73.0978 26.9133 73.9311 26.68 74.8511 26.68C75.6378 26.68 76.3244 26.84 76.9111 27.16C77.5111 27.48 77.9711 27.9 78.2911 28.42V26.84H81.7111V38H78.2911V36.42C77.9578 36.94 77.4911 37.36 76.8911 37.68C76.3044 38 75.6178 38.16 74.8311 38.16C73.9244 38.16 73.0978 37.9267 72.3511 37.46C71.6044 36.98 71.0111 36.3067 70.5711 35.44C70.1444 34.56 69.9311 33.5467 69.9311 32.4ZM78.2911 32.42C78.2911 31.5667 78.0511 30.8933 77.5711 30.4C77.1044 29.9067 76.5311 29.66 75.8511 29.66C75.1711 29.66 74.5911 29.9067 74.1111 30.4C73.6444 30.88 73.4111 31.5467 73.4111 32.4C73.4111 33.2533 73.6444 33.9333 74.1111 34.44C74.5911 34.9333 75.1711 35.18 75.8511 35.18C76.5311 35.18 77.1044 34.9333 77.5711 34.44C78.0511 33.9467 78.2911 33.2733 78.2911 32.42ZM83.5053 32.42C83.5053 31.26 83.7386 30.2467 84.2053 29.38C84.6853 28.5133 85.3453 27.8467 86.1853 27.38C87.0386 26.9133 88.012 26.68 89.1053 26.68C90.5053 26.68 91.672 27.0467 92.6053 27.78C93.552 28.5133 94.172 29.5467 94.4653 30.88H90.8253C90.5186 30.0267 89.9253 29.6 89.0453 29.6C88.4186 29.6 87.9186 29.8467 87.5453 30.34C87.172 30.82 86.9853 31.5133 86.9853 32.42C86.9853 33.3267 87.172 34.0267 87.5453 34.52C87.9186 35 88.4186 35.24 89.0453 35.24C89.9253 35.24 90.5186 34.8133 90.8253 33.96H94.4653C94.172 35.2667 93.552 36.2933 92.6053 37.04C91.6586 37.7867 90.492 38.16 89.1053 38.16C88.012 38.16 87.0386 37.9267 86.1853 37.46C85.3453 36.9933 84.6853 36.3267 84.2053 35.46C83.7386 34.5933 83.5053 33.58 83.5053 32.42ZM103.115 38L99.7147 33.32V38H96.2947V23.2H99.7147V31.38L103.095 26.84H107.315L102.675 32.44L107.355 38H103.115ZM117.976 38.14C116.95 38.14 116.03 37.9733 115.216 37.64C114.403 37.3067 113.75 36.8133 113.256 36.16C112.776 35.5067 112.523 34.72 112.496 33.8H116.136C116.19 34.32 116.37 34.72 116.676 35C116.983 35.2667 117.383 35.4 117.876 35.4C118.383 35.4 118.783 35.2867 119.076 35.06C119.37 34.82 119.516 34.4933 119.516 34.08C119.516 33.7333 119.396 33.4467 119.156 33.22C118.93 32.9933 118.643 32.8067 118.296 32.66C117.963 32.5133 117.483 32.3467 116.856 32.16C115.95 31.88 115.21 31.6 114.636 31.32C114.063 31.04 113.57 30.6267 113.156 30.08C112.743 29.5333 112.536 28.82 112.536 27.94C112.536 26.6333 113.01 25.6133 113.956 24.88C114.903 24.1333 116.136 23.76 117.656 23.76C119.203 23.76 120.45 24.1333 121.396 24.88C122.343 25.6133 122.85 26.64 122.916 27.96H119.216C119.19 27.5067 119.023 27.1533 118.716 26.9C118.41 26.6333 118.016 26.5 117.536 26.5C117.123 26.5 116.79 26.6133 116.536 26.84C116.283 27.0533 116.156 27.3667 116.156 27.78C116.156 28.2333 116.37 28.5867 116.796 28.84C117.223 29.0933 117.89 29.3667 118.796 29.66C119.703 29.9667 120.436 30.26 120.996 30.54C121.57 30.82 122.063 31.2267 122.476 31.76C122.89 32.2933 123.096 32.98 123.096 33.82C123.096 34.62 122.89 35.3467 122.476 36C122.076 36.6533 121.49 37.1733 120.716 37.56C119.943 37.9467 119.03 38.14 117.976 38.14ZM135.721 32.24C135.721 32.56 135.701 32.8933 135.661 33.24H127.921C127.974 33.9333 128.194 34.4667 128.581 34.84C128.981 35.2 129.468 35.38 130.041 35.38C130.894 35.38 131.488 35.02 131.821 34.3H135.461C135.274 35.0333 134.934 35.6933 134.441 36.28C133.961 36.8667 133.354 37.3267 132.621 37.66C131.888 37.9933 131.068 38.16 130.161 38.16C129.068 38.16 128.094 37.9267 127.241 37.46C126.388 36.9933 125.721 36.3267 125.241 35.46C124.761 34.5933 124.521 33.58 124.521 32.42C124.521 31.26 124.754 30.2467 125.221 29.38C125.701 28.5133 126.368 27.8467 127.221 27.38C128.074 26.9133 129.054 26.68 130.161 26.68C131.241 26.68 132.201 26.9067 133.041 27.36C133.881 27.8133 134.534 28.46 135.001 29.3C135.481 30.14 135.721 31.12 135.721 32.24ZM132.221 31.34C132.221 30.7533 132.021 30.2867 131.621 29.94C131.221 29.5933 130.721 29.42 130.121 29.42C129.548 29.42 129.061 29.5867 128.661 29.92C128.274 30.2533 128.034 30.7267 127.941 31.34H132.221ZM140.945 28.7C141.345 28.0867 141.845 27.6067 142.445 27.26C143.045 26.9 143.712 26.72 144.445 26.72V30.34H143.505C142.652 30.34 142.012 30.5267 141.585 30.9C141.158 31.26 140.945 31.9 140.945 32.82V38H137.525V26.84H140.945V28.7ZM151.1 34.8L153.52 26.84H157.16L153.2 38H148.98L145.02 26.84H148.68L151.1 34.8ZM160.319 25.68C159.719 25.68 159.226 25.5067 158.839 25.16C158.466 24.8 158.279 24.36 158.279 23.84C158.279 23.3067 158.466 22.8667 158.839 22.52C159.226 22.16 159.719 21.98 160.319 21.98C160.906 21.98 161.386 22.16 161.759 22.52C162.146 22.8667 162.339 23.3067 162.339 23.84C162.339 24.36 162.146 24.8 161.759 25.16C161.386 25.5067 160.906 25.68 160.319 25.68ZM162.019 26.84V38H158.599V26.84H162.019ZM163.818 32.42C163.818 31.26 164.051 30.2467 164.518 29.38C164.998 28.5133 165.658 27.8467 166.498 27.38C167.351 26.9133 168.324 26.68 169.418 26.68C170.818 26.68 171.984 27.0467 172.918 27.78C173.864 28.5133 174.484 29.5467 174.778 30.88H171.138C170.831 30.0267 170.238 29.6 169.358 29.6C168.731 29.6 168.231 29.8467 167.858 30.34C167.484 30.82 167.298 31.5133 167.298 32.42C167.298 33.3267 167.484 34.0267 167.858 34.52C168.231 35 168.731 35.24 169.358 35.24C170.238 35.24 170.831 34.8133 171.138 33.96H174.778C174.484 35.2667 173.864 36.2933 172.918 37.04C171.971 37.7867 170.804 38.16 169.418 38.16C168.324 38.16 167.351 37.9267 166.498 37.46C165.658 36.9933 164.998 36.3267 164.518 35.46C164.051 34.5933 163.818 33.58 163.818 32.42ZM187.127 32.24C187.127 32.56 187.107 32.8933 187.067 33.24H179.327C179.381 33.9333 179.601 34.4667 179.987 34.84C180.387 35.2 180.874 35.38 181.447 35.38C182.301 35.38 182.894 35.02 183.227 34.3H186.867C186.681 35.0333 186.341 35.6933 185.847 36.28C185.367 36.8667 184.761 37.3267 184.027 37.66C183.294 37.9933 182.474 38.16 181.567 38.16C180.474 38.16 179.501 37.9267 178.647 37.46C177.794 36.9933 177.127 36.3267 176.647 35.46C176.167 34.5933 175.927 33.58 175.927 32.42C175.927 31.26 176.161 30.2467 176.627 29.38C177.107 28.5133 177.774 27.8467 178.627 27.38C179.481 26.9133 180.461 26.68 181.567 26.68C182.647 26.68 183.607 26.9067 184.447 27.36C185.287 27.8133 185.941 28.46 186.407 29.3C186.887 30.14 187.127 31.12 187.127 32.24ZM183.627 31.34C183.627 30.7533 183.427 30.2867 183.027 29.94C182.627 29.5933 182.127 29.42 181.527 29.42C180.954 29.42 180.467 29.5867 180.067 29.92C179.681 30.2533 179.441 30.7267 179.347 31.34H183.627Z" fill="white"/>
</svg>
